<svg xmlns="http://www.w3.org/2000/svg" version="1.1" xmlns:xlink="http://www.w3.org/1999/xlink" width="512" height="512" x="0" y="0" viewBox="0 0 512 512" style="enable-background:new 0 0 512 512" xml:space="preserve" class=""><g><g fill-rule="evenodd" clip-rule="evenodd"><path fill="#4294ff" d="M42.27 9h427.46C488.029 9 503 23.971 503 42.27v427.46c0 18.298-14.971 33.27-33.27 33.27H42.27C23.971 503 9 488.029 9 469.73V42.27C9 23.971 23.971 9 42.27 9z" opacity="1" data-original="#4294ff" class=""></path><path fill="#e6f8ff" d="M53.704 125.89h404.592c7.208 0 13.107 5.897 13.107 13.106v319.3c0 7.208-5.898 13.106-13.107 13.106H53.704c-7.209 0-13.107-5.898-13.107-13.106v-319.3c0-7.209 5.898-13.106 13.107-13.106z" opacity="1" data-original="#e6f8ff" class=""></path><path fill="#004960" d="M9 42.27v52.022h494V42.27C503 23.971 488.029 9 469.731 9H42.27C23.971 9 9 23.971 9 42.27z" opacity="1" data-original="#004960"></path><circle cx="55.251" cy="51.646" r="12.025" fill="#eb3b48" opacity="1" data-original="#eb3b48"></circle><circle cx="99.311" cy="51.646" r="12.025" fill="#ffe600" transform="rotate(-45 99.309 51.668)" opacity="1" data-original="#ffe600"></circle><circle cx="143.37" cy="51.646" r="12.025" fill="#22c269" transform="rotate(-13.34 143.15 51.722)" opacity="1" data-original="#22c269"></circle><path fill="#007ba1" d="M454.37 43.647a8 8 0 0 1 0 16H309.277a8 8 0 0 1 0-16z" opacity="1" data-original="#007ba1"></path><path fill="#a7a7a7" d="M274.766 423.402a8 8 0 0 1 0 16H80.598a8 8 0 0 1 0-16zM431.403 157.89a8 8 0 0 1 0 16H314.766a8 8 0 0 1 0-16zm-.035 53.103a8 8 0 0 1 0 16h-114.17a8 8 0 0 1 0-16zm-.033 53.102a8 8 0 0 1 0 16H314.766a8 8 0 0 1 0-16zm-.034 53.102a8 8 0 0 1 0 16H314.766a8 8 0 0 1 0-16zM274.766 370.3a8 8 0 0 1 0 16H80.632a8 8 0 0 1 0-16z" opacity="1" data-original="#a7a7a7"></path><path fill="#eb3b48" d="M316.698 370.3h112.604c5.5 0 10 4.5 10 10v49.103c0 5.5-4.5 10-10 10H316.698c-5.5 0-10-4.5-10-10V380.3c0-5.501 4.5-10 10-10z" opacity="1" data-original="#eb3b48"></path><path fill="#4294ff" d="M80.962 157.89h193.44c6.108 0 11.107 4.998 11.107 11.106v138.377c0 6.109-4.998 11.107-11.107 11.107H80.962c-6.108 0-11.106-4.998-11.106-11.107V168.997c0-6.109 4.997-11.107 11.106-11.107z" opacity="1" data-original="#4294ff" class=""></path><path fill="#545c66" d="M285.508 307.374v-24.312l-50.267-41.943c-3.024-2.523-7.159-2.786-10.478-.667l-42.133 26.904-25.333-32.33a8.846 8.846 0 0 0-11.484-2.19L69.856 277.26v30.114c0 6.109 4.998 11.106 11.106 11.106h193.44c6.109.001 11.106-4.997 11.106-11.106z" opacity="1" data-original="#545c66"></path><path fill="#e2e3e3" d="M202.565 195.448c6.748 0 12.217 5.47 12.217 12.217s-5.47 12.217-12.217 12.217-12.217-5.47-12.217-12.217 5.47-12.217 12.217-12.217z" opacity="1" data-original="#e2e3e3"></path></g></g></svg>