<svg width="64" height="64" viewBox="0 0 64 64" fill="none" xmlns="http://www.w3.org/2000/svg">
<path d="M63.3349 49.2201C61.0549 49.8001 59.6449 49.2451 58.3799 47.3451C55.5399 43.0901 52.4049 39.0301 49.3799 34.8951C48.9899 34.3601 48.5849 33.8351 48.0799 33.1701C44.4999 38.0001 40.9249 42.6001 37.5699 47.3851C36.3699 49.0951 35.1099 49.8401 32.8699 49.2351L46.3299 31.1701L33.7999 14.8551C35.9549 14.4351 37.4449 14.6501 38.7649 16.5801C41.6799 20.8401 44.8949 24.8951 48.0999 29.1851C51.3249 24.9101 54.4999 20.8501 57.4999 16.6301C58.7049 14.9201 59.9999 14.2701 62.1649 14.9001C60.5249 17.0751 58.9199 19.2151 57.3049 21.3401C55.1249 24.2051 52.9849 27.1051 50.7249 29.9101C49.9199 30.9101 50.0499 31.5601 50.7699 32.5051C54.9499 38.0001 59.0799 43.5501 63.3349 49.2201ZM0.664902 30.8701C1.0249 29.0651 1.2649 27.2251 1.7649 25.4551C4.7649 14.7401 17.0649 10.2851 25.5149 16.9251C30.4649 20.8201 31.6949 26.3101 31.4499 32.5001H3.5499C3.1299 43.6051 11.1249 50.3101 21.3149 46.8901C24.8899 45.6901 26.9949 42.8901 28.0499 39.3901C28.5849 37.6351 29.4699 37.3601 31.1199 37.8601C30.2749 42.2401 28.3599 45.9001 24.3599 48.1901C18.3599 51.6201 9.7949 50.5101 5.2899 45.7451C2.6299 42.9451 1.4999 39.4601 0.999902 35.6951C0.924902 35.0951 0.769902 34.5051 0.649902 33.9101C0.659902 32.8967 0.664902 31.8834 0.664902 30.8701ZM3.5999 30.1251H28.8149C28.6499 22.0951 23.6499 16.3901 16.8149 16.3401C9.3149 16.2801 3.9249 21.8501 3.5999 30.1251Z" fill="black"/>
</svg>
