<svg width="64" height="64" viewBox="0 0 64 64" fill="none" xmlns="http://www.w3.org/2000/svg">
<path d="M9.93115 50.9782L10.3063 50.4551L28.0056 16.8794L28.0432 16.5241L20.2418 1.87031C20.099 1.60234 19.8755 1.38606 19.603 1.25208C19.3305 1.11809 19.0228 1.07318 18.7234 1.12369C18.4239 1.1742 18.148 1.31759 17.9345 1.53355C17.7211 1.74952 17.5809 2.02714 17.5339 2.32713L9.93115 50.9782Z" fill="#FFC24A"/>
<path d="M10.1519 50.5812L10.4343 50.0295L27.9505 16.8025L20.169 2.09131C20.0406 1.83547 19.8329 1.6281 19.5768 1.50026C19.3207 1.37242 19.0301 1.331 18.7485 1.3822C18.4669 1.4334 18.2095 1.57447 18.0148 1.78426C17.8201 1.99406 17.6986 2.2613 17.6685 2.54593L10.1519 50.5812Z" fill="#FFA712"/>
<path d="M33.7301 27.6071L39.5387 21.6485L33.7279 10.5677C33.6 10.3292 33.4099 10.1299 33.1777 9.99091C32.9455 9.85195 32.6799 9.77856 32.4093 9.77856C32.1387 9.77856 31.8732 9.85195 31.641 9.99091C31.4088 10.1299 31.2186 10.3292 31.0907 10.5677L27.9856 16.4866V16.992L33.7301 27.6071Z" fill="#F4BD62"/>
<path d="M33.6264 27.3644L39.2739 21.5823L33.6264 10.8127C33.534 10.5796 33.3761 10.3782 33.1718 10.2328C32.9675 10.0874 32.7254 10.0042 32.4749 9.99319C32.2244 9.98222 31.976 10.044 31.7598 10.171C31.5435 10.298 31.3687 10.4848 31.2562 10.709L28.1357 16.7316L28.043 17.0383L33.6264 27.3644Z" fill="#FFA50E"/>
<path d="M9.93555 50.9805L10.1055 50.8084L10.7212 50.559L33.364 28.0001L33.6509 27.2189L28.0034 16.4536L9.93555 50.9805Z" fill="#F6820C"/>
<path d="M34.4542 62.3569L54.9518 50.9274L49.0947 14.8865C49.0527 14.6325 48.9416 14.3949 48.7734 14.1999C48.6052 14.0048 48.3866 13.8599 48.1415 13.781C47.8963 13.7021 47.6342 13.6923 47.3839 13.7526C47.1335 13.8129 46.9046 13.9411 46.7223 14.1229L9.93115 50.9781L30.3074 62.3547C30.9409 62.7082 31.6543 62.8937 32.3797 62.8937C33.1051 62.8937 33.8185 62.7082 34.452 62.3547" fill="#FDE068"/>
<path d="M54.7643 50.8325L48.9557 15.0632C48.9455 14.8201 48.8633 14.5856 48.7198 14.3893C48.5762 14.193 48.3776 14.0437 48.1491 13.9603C47.9206 13.8769 47.6725 13.8631 47.4362 13.9208C47.1999 13.9784 46.9861 14.1049 46.8217 14.2841L10.1519 50.9098L30.303 62.1649C30.9315 62.5155 31.6391 62.6996 32.3588 62.6996C33.0784 62.6996 33.786 62.5155 34.4145 62.1649L54.7643 50.8325Z" fill="#FCCA3F"/>
<path d="M34.4542 62.0129C33.8207 62.3664 33.1073 62.5519 32.3819 62.5519C31.6565 62.5519 30.9431 62.3664 30.3096 62.0129L10.0989 50.8062L9.93115 50.9784L30.3074 62.3549C30.9409 62.7084 31.6543 62.894 32.3797 62.894C33.1051 62.894 33.8185 62.7084 34.452 62.3549L54.9518 50.9276L54.9011 50.6187L34.4542 62.0129Z" fill="#EEAB37"/>
</svg>
