<svg width="64" height="64" viewBox="0 0 64 64" fill="none" xmlns="http://www.w3.org/2000/svg">
<path fill-rule="evenodd" clip-rule="evenodd" d="M59.5891 30.433C59.5314 30.4445 59.4738 30.5714 59.4738 30.6406C59.4623 31.102 59.4507 32.3248 59.4507 33.1553C59.4507 33.1784 59.4852 33.2245 59.5199 33.2245C59.6929 33.236 60.1082 33.2476 60.4658 33.2476C60.9618 33.2476 61.2502 33.1784 61.4117 33.1092C61.8269 32.9016 62.023 32.4516 62.023 31.9556C62.023 30.8367 61.2386 30.4099 60.0735 30.4099C59.9928 30.3984 59.7622 30.3984 59.5891 30.433ZM62.5652 35.5892C62.5652 34.4473 61.7231 33.8128 60.2005 33.8128C60.1313 33.8128 59.6468 33.8012 59.5314 33.8243C59.4968 33.8359 59.4507 33.859 59.4507 33.8936C59.4507 34.7126 59.4392 36.0161 59.4738 36.5235C59.4968 36.7427 59.6584 37.0542 59.8545 37.1465C60.062 37.2619 60.535 37.2849 60.858 37.2849C61.7693 37.2849 62.5652 36.7774 62.5652 35.5892ZM57.236 29.7986C57.3512 29.7986 57.6973 29.8331 58.5856 29.8331C59.4276 29.8331 60.0966 29.8101 60.9157 29.8101C61.9192 29.8101 63.3034 30.1677 63.3034 31.6672C63.3034 32.4055 62.7843 32.9938 62.1037 33.2822C62.0692 33.2938 62.0692 33.3167 62.1037 33.3283C63.0727 33.5706 63.9264 34.1704 63.9264 35.3009C63.9264 36.4083 63.2343 37.1119 62.2307 37.5502C61.6193 37.8155 60.858 37.9078 60.0851 37.9078C59.4968 37.9078 57.9165 37.8386 57.0399 37.8617C56.9476 37.8271 57.1206 37.4118 57.2013 37.3426C57.409 37.331 57.5704 37.3195 57.7896 37.2503C58.1011 37.1696 58.1356 37.0773 58.1818 36.6044C58.2049 36.2006 58.2049 34.7702 58.2049 33.7551C58.2049 32.3593 58.2165 31.4135 58.2049 30.9521C58.1934 30.5945 58.0665 30.4792 57.8127 30.4099C57.6166 30.3753 57.2936 30.3291 57.0283 30.2946C56.9706 30.2369 57.1667 29.8447 57.236 29.7986ZM50.5801 36.9735C50.857 37.1926 51.3991 37.2849 51.8836 37.2849C52.5065 37.2849 53.1294 37.1696 53.7292 36.6274C54.3406 36.0737 54.7674 35.2201 54.7674 33.859C54.7674 32.5554 54.2714 31.4942 53.2563 30.8714C52.6796 30.5137 51.9412 30.3638 51.0876 30.3638C50.8339 30.3638 50.5916 30.3753 50.4417 30.4445C50.4071 30.4676 50.3263 30.5714 50.3263 30.6291C50.3032 30.8598 50.3032 32.6362 50.3032 33.6744C50.3032 34.7472 50.3032 36.2467 50.3263 36.4197C50.3263 36.5928 50.4071 36.8581 50.5801 36.9735ZM47.9616 29.7986C48.1808 29.7986 49.0228 29.8331 49.4266 29.8331C50.1533 29.8331 50.6723 29.7986 52.0451 29.7986C53.1986 29.7986 54.1675 30.1101 54.8597 30.6983C55.7017 31.425 56.1401 32.4286 56.1401 33.6513C56.1401 35.3931 55.3441 36.3967 54.5482 36.9735C53.7523 37.5618 52.7141 37.9078 51.2377 37.9078C50.4533 37.9078 49.1036 37.8847 47.9847 37.8732H47.9731C47.9155 37.7694 48.0654 37.3657 48.1577 37.3541C48.4576 37.3195 48.5383 37.308 48.6883 37.2503C48.9305 37.158 48.9767 37.0311 49.0114 36.6044C49.0459 35.8084 49.0344 34.851 49.0344 33.7667C49.0344 32.9938 49.0459 31.4827 49.0228 30.9982C48.9883 30.5945 48.8153 30.4907 48.4692 30.4214C48.2961 30.3869 48.0654 30.3407 47.7425 30.3062C47.6963 30.2253 47.9039 29.8678 47.9616 29.7986Z" fill="#8E714E"/>
<path fill-rule="evenodd" clip-rule="evenodd" d="M34.0041 37.4232C33.7157 37.3886 33.508 37.3425 33.2542 37.2271C33.2197 37.204 33.1619 37.0888 33.1619 37.0426C33.1388 36.6388 33.1388 35.4853 33.1388 34.7125C33.1388 34.0895 33.0351 33.5474 32.7697 33.1667C32.4582 32.7283 32.0084 32.4746 31.4317 32.4746C30.9241 32.4746 30.2435 32.8207 29.6783 33.3052C29.6667 33.3166 29.5745 33.3975 29.586 33.2706C29.586 33.1436 29.6091 32.8899 29.6207 32.7169C29.6322 32.5553 29.5399 32.4746 29.5399 32.4746C29.1707 32.6592 28.1326 32.9015 27.7519 32.936C27.4751 32.9937 27.4059 33.259 27.6943 33.3513H27.7058C28.0172 33.4436 28.2249 33.5474 28.3863 33.6512C28.5017 33.7435 28.4901 33.8704 28.4901 33.9742C28.5017 34.8394 28.5017 36.1659 28.4671 36.8927C28.4556 37.181 28.3749 37.2848 28.1672 37.3309L28.1902 37.3194C28.0287 37.354 27.9018 37.3886 27.7057 37.4117C27.6365 37.4809 27.6365 37.8501 27.7057 37.9308C27.8326 37.9308 28.5017 37.8962 29.0554 37.8962C29.8168 37.8962 30.209 37.9308 30.4051 37.9308C30.4858 37.8385 30.5089 37.4924 30.4627 37.4117C30.2435 37.4001 30.082 37.3771 29.9321 37.3309C29.7245 37.2848 29.6667 37.181 29.6552 36.9387C29.6322 36.3273 29.6322 35.0355 29.6322 34.1588C29.6322 33.9165 29.7014 33.8011 29.7706 33.7319C30.0358 33.5013 30.4627 33.3397 30.8433 33.3397C31.2125 33.3397 31.4547 33.4551 31.6393 33.6051C31.893 33.8127 31.9738 34.1126 32.0084 34.3318C32.066 34.8278 32.0431 35.8083 32.0431 36.6619C32.0431 37.1233 32.0084 37.2387 31.8354 37.2963C31.7547 37.3309 31.547 37.3771 31.3047 37.4001C31.224 37.4809 31.2471 37.8385 31.3047 37.9193C31.6393 37.9193 32.0315 37.8846 32.6083 37.8846C33.3234 37.8846 33.7849 37.9193 33.9694 37.9193C34.0271 37.8501 34.0503 37.5155 34.0041 37.4232ZM37.1993 33.0168C36.5879 33.0168 36.2073 33.4898 36.2073 34.228C36.2073 34.9777 36.5417 35.8429 37.4877 35.8429C37.6491 35.8429 37.9491 35.7737 38.0874 35.6122C38.3066 35.4046 38.4566 34.9893 38.4566 34.551C38.4566 33.5936 37.9836 33.0168 37.1993 33.0168ZM37.1185 38.1154C36.8878 38.1154 36.7263 38.1845 36.6226 38.2423C36.138 38.5536 35.9189 38.8536 35.9189 39.2112C35.9189 39.5457 36.0457 39.811 36.3226 40.0417C36.6571 40.3301 37.1185 40.4686 37.7068 40.4686C38.8834 40.4686 39.4025 39.8341 39.4025 39.2112C39.4025 38.7728 39.1833 38.4845 38.7335 38.323C38.4105 38.1845 37.8222 38.1154 37.1185 38.1154ZM37.1993 41.1145C36.4956 41.1145 35.9881 40.9645 35.5498 40.63C35.1229 40.307 34.9384 39.8225 34.9384 39.4881C34.9384 39.3958 34.9615 39.1419 35.1691 38.9113C35.2959 38.7728 35.5728 38.5076 36.2304 38.0577C36.2533 38.0462 36.2649 38.0346 36.2649 38.0115C36.2649 37.9884 36.2418 37.9653 36.2188 37.9539C35.6766 37.7462 35.5151 37.4117 35.4689 37.2271V37.204C35.4575 37.1348 35.4344 37.0657 35.5382 36.9964C35.619 36.9387 35.7343 36.8696 35.8611 36.7888C36.0572 36.6735 36.2649 36.5465 36.3918 36.4427C36.4149 36.4196 36.4149 36.3966 36.4149 36.3735C36.4149 36.3504 36.3918 36.3273 36.3687 36.3159C35.5613 36.0505 35.1576 35.4507 35.1576 34.551C35.1576 33.9627 35.4229 33.432 35.8958 33.0976C36.2188 32.8437 37.0262 32.5323 37.5569 32.5323H37.5915C38.1336 32.5438 38.4336 32.6592 38.8603 32.8092C39.091 32.8899 39.3102 32.9244 39.6102 32.9244C40.06 32.9244 40.2561 32.7861 40.4176 32.6246C40.4291 32.6476 40.4522 32.7054 40.4637 32.8553C40.4753 33.0053 40.4291 33.2244 40.3137 33.3859C40.2214 33.5127 40.0139 33.6051 39.8063 33.6051H39.7485C39.5409 33.582 39.4486 33.5589 39.4486 33.5589L39.4025 33.582C39.391 33.6051 39.4025 33.6281 39.4141 33.6628L39.4256 33.6859C39.4486 33.7897 39.4948 34.1011 39.4948 34.1819C39.4948 35.1277 39.1141 35.5429 38.7104 35.8544C38.3182 36.1428 37.8683 36.3273 37.3608 36.3735C37.3492 36.3735 37.3031 36.3735 37.1993 36.3851C37.1416 36.3851 37.0608 36.3966 37.0493 36.3966H37.0377C36.9455 36.4196 36.7148 36.535 36.7148 36.7311C36.7148 36.9041 36.8187 37.1117 37.3146 37.1464C37.4184 37.1579 37.5222 37.1579 37.6376 37.1695C38.2951 37.2156 39.1141 37.2733 39.4948 37.4001C40.0254 37.5962 40.3599 38.0692 40.3599 38.6345C40.3599 39.4881 39.7485 40.284 38.7335 40.7799C38.2374 40.9991 37.7414 41.1145 37.1993 41.1145ZM43.7744 33.0745C43.5321 33.0745 43.3129 33.1321 43.1514 33.2475C42.7016 33.5243 42.4708 34.0781 42.4708 34.8855C42.4708 36.3966 43.2322 37.4579 44.3165 37.4579C44.6395 37.4579 44.8932 37.3656 45.1124 37.181C45.4469 36.9041 45.62 36.3504 45.62 35.5776C45.62 34.0781 44.8701 33.0745 43.7744 33.0745ZM43.982 38.0115C42.021 38.0115 41.3173 36.5696 41.3173 35.22C41.3173 34.2742 41.698 33.5474 42.4593 33.0283C43.0015 32.6938 43.6474 32.5093 44.2242 32.5093C45.7237 32.5093 46.7735 33.582 46.7735 35.1277C46.7735 36.1774 46.3582 37.0079 45.5623 37.5155C45.1816 37.7692 44.5242 38.0115 43.982 38.0115ZM23.4263 33.0745C23.184 33.0745 22.9649 33.1321 22.8033 33.2475C22.3535 33.5243 22.1227 34.0781 22.1227 34.8855C22.1227 36.3966 22.884 37.4579 23.9684 37.4579C24.2914 37.4579 24.5451 37.3656 24.7643 37.181C25.0988 36.9041 25.2719 36.3504 25.2719 35.5776C25.2719 34.0781 24.5336 33.0745 23.4263 33.0745ZM23.6339 38.0115C21.6729 38.0115 20.9692 36.5696 20.9692 35.22C20.9692 34.2742 21.3499 33.5474 22.1112 33.0283C22.6534 32.6938 23.2993 32.5093 23.8761 32.5093C25.3757 32.5093 26.4254 33.582 26.4254 35.1277C26.4254 36.1774 26.0101 37.0079 25.2142 37.5155C24.845 37.7692 24.1876 38.0115 23.6339 38.0115ZM10.4491 37.8962C10.4261 37.8616 10.403 37.7578 10.4145 37.6309C10.4145 37.5386 10.4376 37.4809 10.4491 37.4579C10.6913 37.4232 10.8183 37.3886 10.9566 37.354C11.1874 37.2963 11.2796 37.1695 11.2912 36.8811C11.3258 36.189 11.3258 34.8739 11.3143 33.9627V33.9396C11.3143 33.8358 11.3143 33.7088 11.1874 33.6166C11.0028 33.5013 10.7836 33.3975 10.4952 33.3166C10.3914 33.2821 10.3222 33.2244 10.3338 33.1552C10.3338 33.086 10.403 33.0053 10.553 32.9822C10.9336 32.9475 11.9256 32.7054 12.3178 32.5323C12.3409 32.5553 12.3755 32.6246 12.3755 32.7169L12.364 32.8437C12.3524 32.9706 12.3409 33.1207 12.3409 33.2706C12.3409 33.3166 12.3871 33.3513 12.4331 33.3513C12.4562 33.3513 12.4793 33.3397 12.5024 33.3282C13.2406 32.7514 13.9097 32.5438 14.2557 32.5438C14.821 32.5438 15.2593 32.8092 15.5939 33.3628C15.6169 33.3975 15.6399 33.4089 15.6746 33.4089C15.6977 33.4089 15.7322 33.3975 15.7438 33.3744C16.4244 32.8553 17.1049 32.5438 17.5548 32.5438C18.6276 32.5438 19.262 33.3397 19.262 34.6894C19.262 35.07 19.262 35.566 19.2505 36.016C19.2505 36.4196 19.2389 36.7888 19.2389 37.0541C19.2389 37.1117 19.3197 37.2963 19.4466 37.3309C19.6081 37.4117 19.8273 37.4463 20.1156 37.4924H20.1272C20.1503 37.5731 20.1041 37.8731 20.058 37.9308C19.9887 37.9308 19.8849 37.9308 19.7696 37.9193C19.5504 37.9077 19.2389 37.8962 18.8929 37.8962C18.1777 37.8962 17.8086 37.9077 17.4509 37.9308C17.428 37.8385 17.4164 37.5617 17.4509 37.4924C17.6586 37.4579 17.7624 37.4232 17.8893 37.3886C18.1201 37.3194 18.1777 37.2156 18.1893 36.9156C18.1893 36.6966 18.2353 34.8278 18.1662 34.3779C18.097 33.9165 17.7509 33.3744 16.9896 33.3744C16.7012 33.3744 16.2513 33.4898 15.813 33.8242C15.79 33.8473 15.7669 33.905 15.7669 33.9396V33.9511C15.813 34.1933 15.813 34.4703 15.813 34.897V35.6468C15.813 36.1659 15.8014 36.6504 15.813 37.0195C15.813 37.2733 15.963 37.3309 16.0899 37.3771C16.1591 37.3886 16.2052 37.4001 16.2629 37.4117C16.3667 37.4348 16.4705 37.4579 16.632 37.4924C16.6551 37.5386 16.6551 37.6885 16.6205 37.8154C16.6089 37.8846 16.5858 37.9193 16.5744 37.9308C16.1822 37.9193 15.7784 37.9077 15.1901 37.9077C15.0171 37.9077 14.7172 37.9193 14.4633 37.9193C14.2557 37.9193 14.0596 37.9308 13.9443 37.9308C13.9328 37.9077 13.9097 37.827 13.9097 37.7001C13.9097 37.5962 13.9328 37.5155 13.9559 37.4924C14.0135 37.4809 14.0596 37.4694 14.1173 37.4694C14.2557 37.4463 14.3711 37.4232 14.4864 37.4001C14.6825 37.3425 14.7517 37.2387 14.7633 36.9849C14.7979 36.4082 14.8324 34.7586 14.7517 34.3433C14.6134 33.6743 14.2327 33.3397 13.6213 33.3397C13.2637 33.3397 12.8138 33.5127 12.4447 33.7897C12.3871 33.8358 12.3409 33.9511 12.3409 34.055V34.7355C12.3409 35.566 12.3409 36.6043 12.3524 37.0541C12.364 37.1925 12.4101 37.354 12.6754 37.4117C12.7331 37.4232 12.8254 37.4463 12.9407 37.4579L13.1484 37.4924C13.1715 37.5617 13.1599 37.8385 13.1137 37.9308C12.9984 37.9308 12.86 37.9193 12.6984 37.9193C12.4562 37.9077 12.1448 37.8962 11.7988 37.8962C11.395 37.8962 11.1066 37.9077 10.8759 37.9193C10.7144 37.8962 10.5875 37.8962 10.4491 37.8962Z" fill="#442D22"/>
<path fill-rule="evenodd" clip-rule="evenodd" d="M4.3817 40.6648L3.90877 40.5032C3.90877 40.5032 3.96651 38.0923 3.10138 37.9193C2.52462 37.2503 3.19366 9.54273 5.26993 37.8271C5.26993 37.8271 4.55482 38.1846 4.4279 38.796C4.28943 39.3959 4.3817 40.6648 4.3817 40.6648Z" fill="white"/>
<path fill-rule="evenodd" clip-rule="evenodd" d="M4.3817 40.6648L3.90877 40.5032C3.90877 40.5032 3.96651 38.0923 3.10138 37.9193C2.52462 37.2503 3.19366 9.54273 5.26993 37.8271C5.26993 37.8271 4.55482 38.1846 4.4279 38.796C4.28943 39.3959 4.3817 40.6648 4.3817 40.6648Z" fill="#A6A385"/>
<path fill-rule="evenodd" clip-rule="evenodd" d="M4.63546 38.3345C4.63546 38.3345 8.77658 35.6122 7.80762 29.9483C6.87331 25.8303 4.67 24.4807 4.42781 23.9616C4.16253 23.5925 3.90869 22.9465 3.90869 22.9465L4.0818 34.4009C4.0818 34.4125 3.72414 37.9076 4.63546 38.3345Z" fill="white"/>
<path fill-rule="evenodd" clip-rule="evenodd" d="M4.63546 38.3345C4.63546 38.3345 8.77658 35.6122 7.80762 29.9483C6.87331 25.8303 4.67 24.4807 4.42781 23.9616C4.16253 23.5925 3.90869 22.9465 3.90869 22.9465L4.0818 34.4009C4.0818 34.4125 3.72414 37.9076 4.63546 38.3345Z" fill="#499D4A"/>
<path fill-rule="evenodd" clip-rule="evenodd" d="M3.66651 38.4844C3.66651 38.4844 -0.220865 35.8313 0.00988043 31.1596C0.22897 26.4878 2.97439 24.1924 3.50495 23.7771C3.85107 23.408 3.86262 23.2695 3.88571 22.9004C4.1279 23.4195 4.08181 30.6636 4.11635 31.5172C4.22017 34.8047 3.9318 37.8616 3.66651 38.4844Z" fill="white"/>
<path fill-rule="evenodd" clip-rule="evenodd" d="M3.66651 38.4844C3.66651 38.4844 -0.220865 35.8313 0.00988043 31.1596C0.22897 26.4878 2.97439 24.1924 3.50495 23.7771C3.85107 23.408 3.86262 23.2695 3.88571 22.9004C4.1279 23.4195 4.08181 30.6636 4.11635 31.5172C4.22017 34.8047 3.9318 37.8616 3.66651 38.4844Z" fill="#58AA50"/>
</svg>
