<svg width="64" height="64" viewBox="0 0 64 64" fill="none" xmlns="http://www.w3.org/2000/svg">
<path d="M42.9941 38.0374C43.3101 35.4064 43.2156 35.0204 45.1751 35.4464L45.6726 35.4904C47.1796 35.5589 49.1511 35.2479 50.3086 34.7099C52.8016 33.5534 54.2796 31.6214 51.8216 32.1289C46.2141 33.2854 45.8286 31.3874 45.8286 31.3874C51.7501 22.6019 54.2256 11.4499 52.0891 8.71989C46.2621 1.27389 36.1751 4.79489 36.0061 4.88639L35.9521 4.89689C34.8441 4.66639 33.6046 4.52939 32.2116 4.50689C29.6741 4.46539 27.7486 5.17239 26.2881 6.27989C26.2881 6.27989 8.29361 -1.13361 9.13061 15.6029C9.30861 19.1634 14.2341 42.5439 20.1086 35.4819C22.2556 32.8999 24.3306 30.7164 24.3306 30.7164C25.3611 31.4009 26.5946 31.7499 27.8886 31.6244L27.9886 31.5394C27.9576 31.8599 27.9711 32.1734 28.0291 32.5444C26.5156 34.2359 26.9606 34.5329 23.9346 35.1554C20.8736 35.7864 22.6721 36.9094 23.8456 37.2029C25.2696 37.5594 28.5621 38.0639 30.7876 34.9484L30.6991 35.3039C31.2931 35.7789 31.2526 38.7174 31.3366 40.8169C31.4206 42.9164 31.5616 44.8754 31.9896 46.0314C32.4176 47.1864 32.9226 50.1619 36.8991 49.3099C40.2221 48.5969 42.7626 47.5719 42.9941 38.0374Z" fill="black"/>
<path d="M35.604 51.3851C33.845 51.3851 32.7 50.7051 32.004 50.0481C30.954 49.0576 30.5375 47.7811 30.289 47.0186L30.1815 46.7001C29.6805 45.3476 29.511 43.4006 29.4105 40.8936C29.3955 40.5176 29.3845 40.1291 29.373 39.7176C29.3645 39.4171 29.354 39.0401 29.339 38.6446C28.714 38.9441 28.045 39.1556 27.3405 39.2766C26.1005 39.4886 24.7675 39.4196 23.3775 39.0721C22.397 38.8271 21.378 38.3191 20.7975 37.5341C19.105 39.0166 17.4905 38.8151 16.611 38.5221C15.0595 38.0046 13.671 36.5511 12.3655 34.0771C11.436 32.3156 10.5365 30.0196 9.69204 27.2541C8.22204 22.4376 7.28804 17.3646 7.20504 15.6996C6.94404 10.4861 8.34704 6.75805 11.375 4.61955C16.1525 1.24505 23.39 3.22905 26.0285 4.13005C27.801 3.06155 29.8865 2.54105 32.2435 2.57905C33.5095 2.59955 34.7145 2.71105 35.834 2.91005C37.0015 2.54305 39.3085 2.01605 41.949 2.04855C46.814 2.10655 50.8455 4.00255 53.607 7.53155C55.5775 10.0496 54.6035 15.3366 53.847 18.2646C52.7835 22.3821 50.919 26.7626 48.629 30.5756C49.251 30.5801 50.1515 30.5051 51.4325 30.2411C53.9595 29.7191 54.698 31.0741 54.8985 31.6806C55.702 34.1141 52.2095 35.9526 51.12 36.4581C49.724 37.1066 47.4485 37.5011 45.5845 37.4156L45.503 37.4101L45.0135 37.3671L44.965 37.7751L44.9185 38.1746C44.7935 43.0066 44.103 46.0666 42.6825 48.0891C41.194 50.2086 39.1245 50.8031 37.302 51.1936C36.6815 51.3271 36.1165 51.3851 35.604 51.3851ZM31.903 33.7981C33.0385 34.7066 33.138 36.4161 33.2265 39.6111C33.2375 40.0096 33.248 40.3871 33.262 40.7396C33.305 41.8066 33.4055 44.3056 33.7965 45.3616C33.852 45.5106 33.9015 45.6626 33.9535 45.8226C34.3895 47.1586 34.6085 47.8281 36.494 47.4241C38.0775 47.0851 38.891 46.7806 39.528 45.8736C40.454 44.5546 40.972 41.9031 41.067 37.9901L42.993 38.0371L41.08 37.8076L41.136 37.3301C41.3195 35.7561 41.4515 34.6181 42.504 33.8661C43.348 33.2626 44.3105 33.3211 45.077 33.4591C44.235 32.8236 44.002 32.0766 43.94 31.7706L43.7795 30.9796L44.2305 30.3096C46.8305 26.4516 48.975 21.7101 50.114 17.3006C51.284 12.7696 50.927 10.3631 50.5705 9.90805C45.8475 3.87255 37.656 6.36405 36.801 6.64755L36.656 6.72555L35.931 6.86105L35.5595 6.78405C34.536 6.57155 33.399 6.45405 32.1795 6.43405C30.264 6.40205 28.719 6.85455 27.452 7.81605L26.573 8.48255L25.5525 8.06205C23.3735 7.17105 16.9715 5.37955 13.5935 7.77205C11.7185 9.10005 10.8645 11.7026 11.0545 15.5071C11.117 16.7631 11.971 21.5176 13.378 26.1296C15.3235 32.5026 17.0915 34.6191 17.8295 34.8656C17.958 34.9091 18.2925 34.6491 18.625 34.2501C20.788 31.6486 22.845 29.4801 22.9315 29.3886L24.047 28.2151L25.3955 29.1111C25.939 29.4726 26.5385 29.6771 27.1545 29.7156L30.371 26.9726L29.905 31.7276C29.8945 31.8346 29.8895 31.9796 29.9315 32.2496L30.0715 33.1511L29.465 33.8301L29.395 33.9086L31.162 34.7246L31.903 33.7981Z" fill="black"/>
<path d="M51.8229 32.1289C46.2149 33.2854 45.8294 31.3869 45.8294 31.3869C51.7504 22.6014 54.2254 11.4489 52.0894 8.71938C46.2619 1.27338 36.1749 4.79488 36.0064 4.88638L35.9519 4.89588C34.8439 4.66638 33.6044 4.52938 32.2109 4.50688C29.6734 4.46538 27.7484 5.17188 26.2879 6.27938C26.2879 6.27938 8.29288 -1.13362 9.12988 15.6029C9.30788 19.1634 14.2334 42.5439 20.1079 35.4819C22.2549 32.8999 24.3294 30.7164 24.3294 30.7164C25.3599 31.4009 26.5934 31.7499 27.8869 31.6244L27.9874 31.5394C27.9564 31.8599 27.9704 32.1734 28.0274 32.5444C26.5144 34.2359 26.9584 34.5329 23.9334 35.1554C20.8719 35.7864 22.6704 36.9094 23.8449 37.2029C25.2684 37.5594 28.5614 38.0639 30.7864 34.9484L30.6974 35.3039C31.2904 35.7789 31.7069 38.3934 31.6369 40.7634C31.5669 43.1334 31.5204 44.7604 31.9879 46.0314C32.4554 47.3019 32.9209 50.1619 36.8979 49.3099C40.2209 48.5974 41.9429 46.7519 42.1829 43.6739C42.3529 41.4854 42.7374 41.8089 42.7619 39.8519L43.0709 38.9254C43.4264 35.9584 43.1274 35.0014 45.1749 35.4469L45.6724 35.4904C47.1794 35.5594 49.1514 35.2479 50.3089 34.7099C52.8019 33.5529 54.2804 31.6214 51.8229 32.1289Z" fill="#336791"/>
<path d="M35.8049 50.1971C32.4894 50.1976 31.4394 47.5721 31.0094 46.4986C30.3809 44.9256 30.2449 38.8196 30.3849 33.8121C30.3949 33.4571 30.6884 33.1766 31.0454 33.1876C31.3999 33.1976 31.6794 33.4931 31.6699 33.8481C31.5084 39.6236 31.7379 44.8571 32.2029 46.0211C32.9294 47.8371 34.0309 49.4256 37.1464 48.7586C40.1039 48.1241 41.2114 47.0026 41.7044 44.1436C42.0834 41.9491 42.8314 35.7066 42.9234 34.4746C42.9499 34.1206 43.2569 33.8546 43.6119 33.8816C43.9659 33.9081 44.2314 34.2166 44.2049 34.5701C44.1089 35.8521 43.3639 42.0831 42.9704 44.3621C42.3879 47.7396 40.8824 49.2716 37.4154 50.0151C36.8269 50.1406 36.2914 50.1971 35.8049 50.1971ZM17.8294 37.3746C17.5129 37.3751 17.2259 37.3171 16.9774 37.2341C14.8239 36.5156 12.7729 33.0086 10.8809 26.8096C9.44093 22.0906 8.52843 17.1656 8.44843 15.5651C8.21093 10.8201 9.43343 7.46262 12.0809 5.58662C17.3189 1.87512 26.1309 5.40962 26.5034 5.56162C26.8319 5.69612 26.9894 6.07112 26.8549 6.39962C26.7209 6.72762 26.3454 6.88562 26.0174 6.75112V6.75162C25.9324 6.71662 17.4824 3.33162 12.8214 6.63712C10.5574 8.24262 9.51793 11.2246 9.73143 15.5016C9.79893 16.8496 10.6514 21.6571 12.1099 26.4351C13.7989 31.9686 15.7214 35.4611 17.3839 36.0151C17.6444 36.1026 18.4384 36.3671 19.5744 35.0021C21.7104 32.4321 23.6729 30.3811 23.6924 30.3606C23.9379 30.1041 24.3449 30.0961 24.6009 30.3411C24.8569 30.5866 24.8659 30.9936 24.6204 31.2496C24.6009 31.2696 22.6684 33.2901 20.5624 35.8236C19.5649 37.0226 18.6084 37.3746 17.8294 37.3746ZM45.7894 31.9601C45.6659 31.9601 45.5409 31.9246 45.4309 31.8501C45.1364 31.6521 45.0584 31.2526 45.2569 30.9581C51.2424 22.0761 53.3434 11.3446 51.5439 9.04562C49.2789 6.15162 46.0804 4.63962 42.0379 4.55312C39.0444 4.48812 36.6649 5.25262 36.2764 5.38612L36.1789 5.42562C35.7879 5.54862 35.4879 5.33412 35.3749 5.08362C35.2409 4.78712 35.3509 4.43662 35.6289 4.26812L35.8019 4.19712L35.7934 4.19962L35.8024 4.19662C36.4629 3.95512 38.8784 3.23012 41.8709 3.26462C46.3444 3.31162 50.0394 5.03712 52.5564 8.25312C53.7474 9.77512 53.7499 13.2816 52.5639 17.8731C51.3549 22.5541 49.0799 27.5856 46.3229 31.6766C46.1989 31.8611 45.9959 31.9601 45.7894 31.9601ZM46.0949 36.0716C45.0729 36.0716 44.1569 35.9281 43.6084 35.5991C43.0444 35.2616 42.9369 34.8021 42.9229 34.5586C42.7689 31.8566 44.2599 31.3861 45.0204 31.1716C44.9144 31.0116 44.7634 30.8231 44.6079 30.6286C44.1644 30.0746 43.5574 29.3156 43.0894 28.1806C43.0164 28.0036 42.7864 27.5911 42.5204 27.1141C41.0789 24.5296 38.0799 19.1511 40.0064 16.3966C40.8984 15.1221 42.6734 14.6206 45.2894 14.9006C44.5199 12.5561 40.8549 5.22162 32.1599 5.07912C29.5444 5.03512 27.3994 5.83962 25.7879 7.46662C22.1794 11.1111 22.3104 17.7051 22.3119 17.7706C22.3214 18.1256 22.0409 18.4206 21.6864 18.4296C21.3314 18.4406 21.0364 18.1591 21.0274 17.8041C21.0194 17.5116 20.8844 10.5921 24.8749 6.56212C26.7424 4.67612 29.2004 3.74512 32.1809 3.79362C37.7449 3.88512 41.3254 6.71312 43.3499 9.07012C45.5559 11.6381 46.6379 14.4711 46.7269 15.4161C46.7934 16.1191 46.2889 16.2601 46.1869 16.2806L45.9554 16.2861C43.3879 15.8751 41.7409 16.1601 41.0599 17.1336C39.5944 19.2276 42.4314 24.3151 43.6429 26.4881C43.9524 27.0421 44.1754 27.4426 44.2774 27.6901C44.6754 28.6551 45.1944 29.3036 45.6114 29.8246C45.9779 30.2831 46.2959 30.6801 46.4099 31.1471C46.4624 31.2396 47.2114 32.3466 51.6539 31.4296C52.7674 31.2001 53.4349 31.3966 53.6389 32.0136C54.0404 33.2281 51.7879 34.6441 50.5409 35.2236C49.4219 35.7431 47.6384 36.0716 46.0949 36.0716ZM44.2044 34.4526C44.3449 34.5951 45.0499 34.8401 46.5104 34.7776C47.8084 34.7216 49.1779 34.4391 49.9999 34.0581C51.0509 33.5701 51.7519 33.0246 52.1154 32.6521L51.9134 32.6891C49.0729 33.2756 47.0639 33.1976 45.9424 32.4566C45.8619 32.4041 45.7904 32.3491 45.7249 32.2951C45.6034 32.3431 45.4909 32.3746 45.4109 32.3971C44.7744 32.5756 44.1164 32.7601 44.2044 34.4526ZM25.8559 38.0421C25.1504 38.0421 24.4079 37.9466 23.6494 37.7561C22.8639 37.5596 21.5389 36.9681 21.5594 35.9966C21.5819 34.9061 23.1674 34.5791 23.7649 34.4561C25.9209 34.0121 26.0614 33.8341 26.7354 32.9786C26.9319 32.7291 27.1764 32.4186 27.5094 32.0461C28.0044 31.4926 28.5454 31.2116 29.1174 31.2116C29.5154 31.2116 29.8424 31.3471 30.0579 31.4361C30.7459 31.7211 31.3199 32.4101 31.5559 33.2351C31.7689 33.9791 31.6674 34.6951 31.2699 35.2511C29.9659 37.0776 28.0939 38.0421 25.8559 38.0421ZM22.9474 36.0521C23.1414 36.2016 23.5294 36.4016 23.9609 36.5101C24.6179 36.6741 25.2549 36.7576 25.8559 36.7576C27.6869 36.7576 29.1564 35.9991 30.2244 34.5046C30.4469 34.1926 30.3804 33.7971 30.3209 33.5886C30.1959 33.1526 29.8859 32.7561 29.5664 32.6231C29.3929 32.5511 29.2494 32.4961 29.1174 32.4961C29.0464 32.4961 28.8309 32.4961 28.4674 32.9026C28.1604 33.2456 27.9399 33.5256 27.7444 33.7731C26.9054 34.8386 26.5209 35.2001 24.0239 35.7146C23.4149 35.8406 23.1024 35.9676 22.9474 36.0521ZM27.8884 33.0881C27.5764 33.0881 27.3029 32.8606 27.2539 32.5431C27.2374 32.4366 27.2269 32.3291 27.2219 32.2211C25.5849 32.1901 24.0059 31.4881 22.8074 30.2371C21.2919 28.6556 20.6019 26.4646 20.9149 24.2261C21.2549 21.7951 21.1279 19.6491 21.0594 18.4961C21.0404 18.1756 21.0269 17.9441 21.0279 17.7836C21.0289 17.5806 21.0329 17.0411 22.8354 16.1276C23.4764 15.8026 24.7619 15.2356 26.1659 15.0901C28.4929 14.8501 30.0264 15.8861 30.4854 18.0081C31.7244 23.7381 30.5834 26.2726 29.7504 28.1231C29.5949 28.4671 29.4484 28.7931 29.3314 29.1081L29.2279 29.3866C28.7879 30.5666 28.4074 31.5861 28.5244 32.3481C28.5779 32.6991 28.3374 33.0266 27.9869 33.0811L27.8884 33.0881ZM22.3169 17.9611L22.3424 18.4201C22.4134 19.6176 22.5454 21.8466 22.1874 24.4046C21.9294 26.2506 22.4934 28.0531 23.7349 29.3486C24.7159 30.3726 26.0079 30.9376 27.3354 30.9376H27.3629C27.5119 30.3111 27.7584 29.6501 28.0239 28.9376L28.1269 28.6611C28.2594 28.3051 28.4144 27.9606 28.5784 27.5961C29.3804 25.8141 30.3784 23.5961 29.2289 18.2796C29.0009 17.2271 28.4489 16.6176 27.5414 16.4166C25.6774 16.0046 22.8999 17.4066 22.3169 17.9611ZM26.1949 17.6886C26.1629 17.9156 26.6114 18.5221 27.1954 18.6031C27.7789 18.6846 28.2784 18.2106 28.3099 17.9836C28.3414 17.7561 27.8934 17.5061 27.3089 17.4246C26.7254 17.3431 26.2259 17.4611 26.1949 17.6886ZM27.3299 18.8271L27.1659 18.8156C26.8034 18.7651 26.4369 18.5366 26.1864 18.2041C26.0984 18.0876 25.9544 17.8606 25.9829 17.6586C26.0239 17.3621 26.3849 17.1851 26.9494 17.1851C27.0759 17.1851 27.2069 17.1946 27.3394 17.2126C27.6474 17.2556 27.9339 17.3446 28.1454 17.4626C28.5119 17.6676 28.5389 17.8956 28.5224 18.0141C28.4769 18.3406 27.9559 18.8271 27.3299 18.8271ZM26.4079 17.7266C26.4264 17.8666 26.7729 18.3291 27.2249 18.3916L27.3294 18.3991C27.7464 18.3991 28.0584 18.0706 28.0949 17.9631C28.0564 17.8901 27.7884 17.7076 27.2794 17.6376C27.1669 17.6216 27.0554 17.6136 26.9489 17.6136C26.6229 17.6131 26.4484 17.6866 26.4079 17.7266ZM43.9684 17.2251C43.9999 17.4526 43.5524 18.0591 42.9679 18.1401C42.3839 18.2211 41.8844 17.7476 41.8524 17.5201C41.8214 17.2931 42.2694 17.0426 42.8534 16.9616C43.4374 16.8796 43.9364 16.9986 43.9684 17.2251ZM42.8334 18.2561C42.2709 18.2561 41.7864 17.8186 41.7464 17.5351C41.7004 17.1946 42.2609 16.9356 42.8389 16.8556C42.9659 16.8376 43.0919 16.8286 43.2134 16.8286C43.7119 16.8286 44.0419 16.9751 44.0749 17.2106C44.0964 17.3636 43.9794 17.5991 43.7774 17.8111C43.6444 17.9511 43.3644 18.1936 42.9834 18.2461L42.8334 18.2561ZM43.2129 17.0426C43.1014 17.0426 42.9854 17.0511 42.8679 17.0671C42.2869 17.1476 41.9414 17.3811 41.9579 17.5061C41.9774 17.6431 42.3479 18.0421 42.8329 18.0421L42.9524 18.0336C43.2694 17.9891 43.5074 17.7826 43.6209 17.6631C43.7989 17.4756 43.8699 17.2996 43.8614 17.2391C43.8509 17.1606 43.6369 17.0426 43.2129 17.0426ZM44.8099 30.2691C44.6869 30.2691 44.5629 30.2341 44.4529 30.1606C44.1579 29.9626 44.0789 29.5641 44.2764 29.2691C45.6444 27.2256 45.3939 25.1411 45.1519 23.1261C45.0484 22.2671 44.9419 21.3796 44.9699 20.5271C44.9979 19.6506 45.1089 18.9276 45.2169 18.2276C45.3444 17.3991 45.4649 16.6156 45.4149 15.6866C45.3954 15.3326 45.6674 15.0301 46.0219 15.0101C46.3774 14.9911 46.6789 15.2631 46.6984 15.6176C46.7554 16.6796 46.6189 17.5656 46.4869 18.4231C46.3849 19.0846 46.2794 19.7686 46.2539 20.5681C46.2294 21.3226 46.3259 22.1241 46.4279 22.9721C46.6859 25.1156 46.9774 27.5451 45.3444 29.9836C45.2204 30.1686 45.0169 30.2691 44.8099 30.2691Z" fill="white"/>
<path d="M1.41748 51.5921C1.96398 51.5011 2.67848 51.4231 3.58898 51.4231C4.70648 51.4231 5.52598 51.6831 6.04598 52.1511C6.52698 52.5671 6.81298 53.2041 6.81298 53.9846C6.81298 54.7776 6.57848 55.4016 6.13648 55.8566C5.53848 56.4936 4.56348 56.8186 3.45848 56.8186C3.12048 56.8186 2.80848 56.8056 2.54898 56.7406V60.2511H1.41748V51.5921ZM2.54898 55.8171C2.79598 55.8821 3.10798 55.9081 3.48498 55.9081C4.84948 55.9081 5.68198 55.2451 5.68198 54.0361C5.68198 52.8791 4.86298 52.3201 3.61498 52.3201C3.12098 52.3201 2.74398 52.3591 2.54898 52.4111V55.8171ZM13.664 57.0521C13.664 59.3791 12.0515 60.3936 10.5305 60.3936C8.82748 60.3936 7.51448 59.1456 7.51448 57.1561C7.51448 55.0501 8.89248 53.8151 10.6345 53.8151C12.442 53.8146 13.664 55.1281 13.664 57.0521ZM8.67198 57.1171C8.67198 58.4951 9.46498 59.5351 10.583 59.5351C11.675 59.5351 12.4935 58.5081 12.4935 57.0911C12.4935 56.0251 11.961 54.6731 10.6085 54.6731C9.25598 54.6731 8.67198 55.9211 8.67198 57.1171ZM14.9505 59.0801C15.2885 59.3011 15.8865 59.5351 16.4585 59.5351C17.2905 59.5351 17.6805 59.1191 17.6805 58.5991C17.6805 58.0531 17.356 57.7541 16.5105 57.4421C15.3795 57.0391 14.8465 56.4151 14.8465 55.6611C14.8465 54.6471 15.6655 53.8151 17.0175 53.8151C17.6545 53.8151 18.214 53.9971 18.565 54.2051L18.279 55.0371C18.032 54.8811 17.577 54.6731 16.992 54.6731C16.316 54.6731 15.939 55.0631 15.939 55.5311C15.939 56.0511 16.3165 56.2851 17.1355 56.5971C18.2275 57.0131 18.7865 57.5591 18.7865 58.4951C18.7865 59.6001 17.9285 60.3801 16.4335 60.3801C15.7445 60.3801 15.1075 60.2111 14.6655 59.9511L14.9505 59.0801ZM21.633 52.1506V53.9576H23.2705V54.8286H21.633V58.2216C21.633 59.0016 21.8535 59.4436 22.491 59.4436C22.79 59.4436 23.011 59.4046 23.154 59.3656L23.206 60.2236C22.9855 60.3146 22.634 60.3796 22.1925 60.3796C21.6595 60.3796 21.23 60.2106 20.957 59.8986C20.6325 59.5606 20.515 59.0016 20.515 58.2606V54.8286H19.54V53.9576H20.515V52.4496L21.633 52.1506ZM29.901 53.9581C29.8745 54.4131 29.849 54.9201 29.849 55.6871V59.3401C29.849 60.7831 29.563 61.6671 28.952 62.2136C28.341 62.7856 27.457 62.9676 26.664 62.9676C25.91 62.9676 25.078 62.7856 24.5705 62.4476L24.8565 61.5766C25.2725 61.8366 25.9225 62.0706 26.7025 62.0706C27.8725 62.0706 28.7305 61.4596 28.7305 59.8736V59.1716H28.7045C28.3535 59.7566 27.6775 60.2246 26.7025 60.2246C25.1425 60.2246 24.0245 58.8986 24.0245 57.1561C24.0245 55.0241 25.4155 53.8151 26.8585 53.8151C27.951 53.8151 28.549 54.3871 28.822 54.9071H28.848L28.9 53.9581H29.901ZM28.718 56.4411C28.718 56.2461 28.705 56.0771 28.653 55.9211C28.445 55.2581 27.886 54.7121 27.054 54.7121C25.9615 54.7121 25.182 55.6351 25.182 57.0911C25.182 58.3261 25.806 59.3531 27.041 59.3531C27.743 59.3531 28.38 58.9111 28.627 58.1831C28.692 57.9881 28.7185 57.7671 28.7185 57.5721L28.718 56.4411ZM31.6685 55.9211C31.6685 55.1801 31.6555 54.5431 31.6165 53.9581H32.618L32.6565 55.1931H32.7085C32.9945 54.3481 33.6835 53.8151 34.4505 53.8151C34.5805 53.8151 34.671 53.8281 34.775 53.8541V54.9331C34.6585 54.9071 34.541 54.8941 34.3855 54.8941C33.5795 54.8941 33.007 55.5051 32.8515 56.3631C32.8255 56.5191 32.7995 56.7011 32.7995 56.8961V60.2501H31.6685V55.9211ZM36.427 57.3121C36.453 58.8591 37.4405 59.4961 38.5845 59.4961C39.404 59.4961 39.8975 59.3531 40.3265 59.1711L40.5215 59.9901C40.1185 60.1721 39.4295 60.3801 38.4285 60.3801C36.4915 60.3801 35.3345 59.1061 35.3345 57.2081C35.3345 55.3101 36.4525 53.8146 38.2855 53.8146C40.3395 53.8146 40.8855 55.6216 40.8855 56.7786C40.8855 57.0126 40.8595 57.1946 40.8465 57.3116L36.427 57.3121ZM39.781 56.4931C39.7935 55.7651 39.4815 54.6341 38.195 54.6341C37.038 54.6341 36.531 55.7001 36.4395 56.4931H39.781Z" fill="black"/>
<path d="M42.1854 58.872C42.6924 59.184 43.4334 59.444 44.2134 59.444C45.3704 59.444 46.0464 58.833 46.0464 57.949C46.0464 57.13 45.5784 56.662 44.3954 56.207C42.9654 55.7 42.0814 54.959 42.0814 53.724C42.0814 52.359 43.2124 51.345 44.9154 51.345C45.8124 51.345 46.4624 51.553 46.8524 51.774L46.5404 52.697C46.2544 52.541 45.6694 52.281 44.8764 52.281C43.6804 52.281 43.2254 52.996 43.2254 53.594C43.2254 54.413 43.7579 54.816 44.9674 55.284C46.4494 55.8565 47.2034 56.571 47.2034 57.858C47.2034 59.21 46.2024 60.38 44.1354 60.38C43.2904 60.38 42.3674 60.133 41.8989 59.821L42.1854 58.872ZM55.9784 61.537C54.7954 61.225 53.6384 60.874 52.6244 60.523C52.4424 60.458 52.2604 60.393 52.0914 60.393C50.0114 60.315 48.2304 58.781 48.2304 55.96C48.2304 53.152 49.9464 51.345 52.3124 51.345C54.6914 51.345 56.2389 53.191 56.2389 55.778C56.2389 58.027 55.1989 59.47 53.7429 59.977V60.029C54.6139 60.25 55.5629 60.458 56.3039 60.588L55.9784 61.537ZM55.0424 55.83C55.0424 54.075 54.1329 52.2675 52.2734 52.2675C50.3624 52.2675 49.4264 54.0355 49.4394 55.934C49.4264 57.793 50.4534 59.47 52.2214 59.47C54.0289 59.47 55.0424 57.832 55.0424 55.83ZM57.7069 51.488H58.8384V59.301H62.5824V60.25H57.7069V51.488Z" fill="#336791"/>
</svg>
