<svg width="64" height="64" viewBox="0 0 64 64" fill="none" xmlns="http://www.w3.org/2000/svg">
<path fill-rule="evenodd" clip-rule="evenodd" d="M52.3277 50.1187L24.8055 58.324C24.6137 58.3821 24.4102 58.3895 24.2147 58.3455C24.0192 58.3015 23.8385 58.2075 23.6902 58.0727C23.5419 57.938 23.4311 57.7671 23.3685 57.5767C23.306 57.3864 23.2939 57.183 23.3335 56.9866L33.1674 9.51406C33.209 9.32014 33.3103 9.14412 33.4571 9.01074C33.6038 8.87737 33.7887 8.79333 33.9857 8.77044C34.1827 8.74755 34.382 8.78696 34.5554 8.88313C34.7289 8.9793 34.8678 9.12739 34.9528 9.30661L53.1575 48.2826C53.2391 48.4559 53.2821 48.6449 53.2836 48.8364C53.2851 49.028 53.2451 49.2176 53.1662 49.3921C53.0873 49.5667 52.9715 49.722 52.8267 49.8475C52.6819 49.9729 52.5117 50.0655 52.3277 50.1187ZM57.0482 48.1811L35.9746 3.05226C35.7155 2.49564 35.3097 2.02011 34.8007 1.67678C34.2918 1.33344 33.6989 1.13528 33.0857 1.10357C32.4726 1.0614 31.8596 1.18929 31.3145 1.47316C30.7693 1.75702 30.3131 2.18585 29.9961 2.7124L7.14367 40.0509C6.79507 40.6161 6.61377 41.2685 6.6208 41.9325C6.62783 42.5965 6.8229 43.2449 7.18339 43.8026L18.3591 61.257C18.7802 61.9092 19.4013 62.4076 20.1294 62.6773C20.8574 62.9471 21.6533 62.9737 22.3977 62.7532L54.8391 53.0804C55.3291 52.9377 55.7823 52.6905 56.1675 52.3557C56.5528 52.021 56.8609 51.6068 57.0706 51.1416C57.2804 50.6763 57.3868 50.1711 57.3826 49.6608C57.3783 49.1505 57.2635 48.6472 57.046 48.1855L57.0482 48.1811Z" fill="#0C3147" stroke="#0C3147"/>
</svg>
