<svg width="64" height="64" viewBox="0 0 64 64" fill="none" xmlns="http://www.w3.org/2000/svg">
<path d="M31.9893 36.7868C35.144 36.7868 37.7013 34.2294 37.7013 31.0748C37.7013 27.9201 35.144 25.3628 31.9893 25.3628C28.8347 25.3628 26.2773 27.9201 26.2773 31.0748C26.2773 34.2294 28.8347 36.7868 31.9893 36.7868Z" fill="#00D8FF"/>
<path d="M31.9887 20.8245C39.3701 20.8245 46.3819 21.8651 51.7127 23.7003C57.633 25.7384 61.2444 28.7518 61.2444 31.0736C61.2444 33.5467 57.3442 36.7575 51.0115 38.8557C45.97 40.5261 39.2247 41.4366 31.9887 41.4366C24.3872 41.4366 17.5658 40.5438 12.5828 38.8406C9.46312 37.7743 6.88684 36.3885 5.12099 34.8763C3.53421 33.5174 2.7331 32.1682 2.7331 31.0736C2.7331 28.744 6.20624 25.7725 11.9989 23.7529C17.3319 21.8937 24.5154 20.8245 31.9887 20.8245ZM31.9887 18.0914C24.225 18.0914 16.7407 19.2054 11.0992 21.1721C4.32572 23.5337 0 27.2346 0 31.0736C0 35.0385 4.64374 39.0153 11.6988 41.4268C17.0018 43.2394 24.11 44.1697 31.9887 44.1697C39.4975 44.1697 46.5265 43.2209 51.8711 41.4501C59.2055 39.02 63.9774 35.0915 63.9774 31.0736C63.9774 27.2207 59.5122 23.4948 52.6023 21.116C46.9676 19.1762 39.6579 18.0914 31.9887 18.0914ZM23.0609 25.9819C26.7483 19.5878 31.1528 14.0335 35.4056 10.3323C40.1289 6.22192 44.5434 4.5989 46.5547 5.75876C48.6971 6.99425 49.5302 11.9769 48.1841 18.5109C47.1125 23.7127 44.5314 30.0108 40.9166 36.2791C37.1191 42.8641 32.938 48.3272 28.973 51.7931C26.4909 53.9628 24.0034 55.5023 21.8112 56.2765C19.8414 56.9722 18.2724 56.9922 17.324 56.4453C15.306 55.2815 14.467 50.7884 15.6114 44.7614C16.6649 39.213 19.3273 32.4561 23.0609 25.9819ZM20.6933 24.6165C16.8146 31.3423 14.0407 38.3821 12.9262 44.2516C11.5881 51.299 12.6331 56.895 15.9587 58.8129C19.3935 60.7937 25.1584 58.7577 30.7718 53.8508C34.9913 50.1625 39.3482 44.4696 43.2842 37.6445C47.0353 31.1399 49.7249 24.5768 50.861 19.0623C52.42 11.4949 51.4007 5.39834 47.92 3.39113C44.5824 1.46643 39.1241 3.47323 33.6114 8.27064C29.1161 12.1828 24.5245 17.973 20.6933 24.6165ZM23.0694 36.294C19.3713 29.906 16.7589 23.3162 15.6763 17.7833C14.474 11.6385 15.2726 7.0033 17.2819 5.84007C19.4223 4.60093 24.1552 6.36765 29.1436 10.797C33.1152 14.3233 37.2825 19.7047 40.9079 25.967C44.7164 32.5456 47.3615 38.8964 48.384 44.0624C49.0242 47.2965 49.1157 50.2204 48.6916 52.5062C48.3106 54.5603 47.5443 55.9295 46.5969 56.478C44.5807 57.6452 40.269 56.1282 35.619 52.1267C31.3382 48.4431 26.8139 42.7619 23.0694 36.294ZM20.7041 37.6633C24.594 44.3825 29.3079 50.3016 33.8363 54.1984C39.2736 58.8773 44.6437 60.7667 47.9662 58.8433C51.3977 56.8568 52.5129 50.8456 51.0651 43.5317C49.9769 38.034 47.2206 31.4162 43.2732 24.5977C39.5112 18.0992 35.1685 12.4914 30.9583 8.75324C25.1808 3.62329 19.3899 1.46163 15.9126 3.47474C12.5782 5.40503 11.5908 11.1363 12.9941 18.3081C14.1384 24.1565 16.8618 31.0262 20.7041 37.6633Z" fill="#00D8FF"/>
</svg>
