<svg width="64" height="64" viewBox="0 0 64 64" fill="none" xmlns="http://www.w3.org/2000/svg">
<path d="M47.6828 30.1231V38.2274H45.072V28.854L47.6828 30.1231Z" fill="#F37368"/>
<path d="M10.7332 36.7227L12.6912 38.4269L20.9405 34.1301L20.0884 32.0813L10.7332 36.7227ZM45.072 31.5012L51.7077 28.0564L50.5836 26.1165L45.072 28.8541V31.5012Z" fill="#F7A199"/>
<path d="M26.3977 29.4887V38.2275H23.8958V25.772L26.3977 29.4887ZM10.7332 36.7227L12.6912 38.4269L16.4623 28.9992L15.2476 25.772L10.7332 36.7227Z" fill="#F37368"/>
<path d="M15.2478 25.772H17.8223L22.5906 38.2275H19.9436L15.2478 25.772ZM26.7787 25.772L32.2722 34.2751V38.2275L23.896 25.772H26.7787ZM36.986 25.772H39.5787V38.2275H36.986V25.772ZM45.0722 28.0564H41.0835V25.772H50.3843L51.7079 28.0564H47.6829H45.0722Z" fill="#F04939"/>
<path d="M59.377 33.4954V38.2274H56.8025V33.4954" fill="#F7A199"/>
<path d="M61.1538 25.772L56.8025 33.4955H59.377L63.8914 25.772H61.1538Z" fill="#F04939"/>
<path d="M56.8025 33.4955L52.3062 25.772H55.1345L58.1622 31.066L56.8025 33.4955Z" fill="#F37368"/>
<path d="M1.06969 27.2224C1.06969 28.9448 2.13938 29.9782 4.27876 30.5221L6.54505 31.0479C8.57564 31.5193 9.80851 32.6796 9.80851 34.5652C9.82664 35.3811 9.55468 36.1788 9.06516 36.8315C9.06516 34.9459 8.08613 33.9306 5.74732 33.3142L3.51729 32.8065C1.72239 32.4077 0.344482 31.4468 0.344482 29.398C0.344482 28.6184 0.598307 27.8388 1.06969 27.2224Z" fill="#F04939"/>
<path d="M32.272 33.6405V25.772H34.774V38.2275H32.272V33.6405Z" fill="#F37368"/>
<path d="M7.66924 34.0938C8.63014 34.7102 9.06527 35.5804 9.06527 36.8314C8.24941 37.8649 6.85337 38.4269 5.20352 38.4269C2.42958 38.4269 0.453374 37.049 0.036377 34.6739H2.70153C3.04601 35.7617 3.95252 36.2694 5.18539 36.2694C6.65394 36.2875 7.65111 35.4898 7.66924 34.0938ZM1.0698 27.2042C1.84941 26.1889 3.19105 25.5725 4.82278 25.5725C7.66924 25.5725 9.30097 27.0773 9.71796 29.1804H7.14346C6.85337 28.3464 6.14629 27.6938 4.85904 27.6938C3.46301 27.7119 2.52023 28.5096 2.46584 29.7787C1.53159 29.2635 1.03354 28.2558 1.0698 27.2042Z" fill="#F37368"/>
</svg>
