<svg xmlns="http://www.w3.org/2000/svg" version="1.1" xmlns:xlink="http://www.w3.org/1999/xlink" xmlns:svgjs="http://svgjs.com/svgjs" width="512" height="512" x="0" y="0" viewBox="0 0 512 512" style="enable-background:new 0 0 512 512" xml:space="preserve" class=""><g><path d="m333.435 318.269-4.442-25.895 59.546-58.041a9.269 9.269 0 0 0-5.137-15.81l-82.291-11.958-36.804-74.567a9.266 9.266 0 0 0-16.62 0l-36.803 74.567-82.291 11.958a9.273 9.273 0 0 0-7.483 6.309 9.275 9.275 0 0 0 2.347 9.501l59.548 58.041-14.058 81.959a9.266 9.266 0 0 0 13.446 9.77L256 345.407l73.6 38.695a9.28 9.28 0 0 0 9.764-.705 9.276 9.276 0 0 0 3.687-9.065l-5.277-30.767" style="" fill="#ffd960" data-original="#ffd960" class=""></path><g style="opacity:0.2;"><path d="m193.023 367.477 13.371-77.961c.547-3.188-.467-4.978-1.137-5.775l-.525-.512-57.2-55.753a9.275 9.275 0 0 1-2.348-9.501 9.237 9.237 0 0 1 .949-2.001l-17.538 2.548a9.273 9.273 0 0 0-7.483 6.309 9.275 9.275 0 0 0 2.347 9.501l59.548 58.041-14.058 81.959a9.266 9.266 0 0 0 13.446 9.77l14.346-7.541c-.011-.008-.023-.013-.033-.02a9.267 9.267 0 0 1-3.685-9.064z" style="" fill="#231f20" data-original="#231f20" class=""></path></g><path d="M178.067 393.272c-3.583.001-7.143-1.123-10.185-3.335-5.384-3.913-8.027-10.417-6.9-16.974l13.339-77.767-56.505-55.075c-4.763-4.65-6.445-11.464-4.392-17.786 2.06-6.332 7.428-10.855 14.01-11.812l78.084-11.347 34.922-70.755c2.939-5.966 8.903-9.675 15.56-9.675s12.62 3.709 15.56 9.681l34.919 70.749 78.084 11.347c6.587.956 11.957 5.483 14.009 11.814 2.057 6.316.376 13.133-4.389 17.782l-56.505 55.078 3.723 21.706c.756 4.4-2.2 8.58-6.601 9.335a8.081 8.081 0 0 1-9.333-6.601l-4.442-25.895a8.081 8.081 0 0 1 2.324-7.156l59.546-58.041a1.187 1.187 0 0 0-.655-2.021l-82.292-11.958a8.083 8.083 0 0 1-6.087-4.423l-36.804-74.567a1.172 1.172 0 0 0-1.058-.662c-.454 0-.86.251-1.06.658l-36.805 74.571a8.087 8.087 0 0 1-6.088 4.423l-82.291 11.958a1.198 1.198 0 0 0-.958.81c-.137.421-.017.9.305 1.215l59.545 58.038a8.079 8.079 0 0 1 2.324 7.156l-14.058 81.959a1.18 1.18 0 0 0 .471 1.159c.361.262.848.297 1.243.091l73.607-38.696a8.088 8.088 0 0 1 7.524 0l73.6 38.694c.323.169.711.302 1.248-.089a1.2 1.2 0 0 0 .472-1.164l-5.276-30.762a8.084 8.084 0 1 1 15.936-2.733l5.276 30.767c1.121 6.56-1.524 13.061-6.9 16.97a17.252 17.252 0 0 1-10.204 3.315 17.43 17.43 0 0 1-8.072-1.991L256 354.541l-69.842 36.718a17.356 17.356 0 0 1-8.091 2.013zM46.482 264.084H8.084A8.083 8.083 0 0 1 0 256a8.083 8.083 0 0 1 8.084-8.084h38.398a8.084 8.084 0 0 1 0 16.168zM503.916 264.084h-38.398a8.084 8.084 0 0 1-8.084-8.084 8.083 8.083 0 0 1 8.084-8.084h38.398A8.084 8.084 0 0 1 512 256a8.083 8.083 0 0 1-8.084 8.084zM80.698 439.387a8.058 8.058 0 0 1-5.717-2.368 8.082 8.082 0 0 1 .001-11.432l27.151-27.15a8.083 8.083 0 1 1 11.431 11.432L86.413 437.02a8.056 8.056 0 0 1-5.715 2.367zM404.149 115.932a8.084 8.084 0 0 1-5.716-13.801l27.152-27.15a8.082 8.082 0 0 1 11.432 0 8.082 8.082 0 0 1-.001 11.432l-27.152 27.15a8.048 8.048 0 0 1-5.715 2.369zM256 511.999a8.084 8.084 0 0 1-8.084-8.084v-38.397c0-4.465 3.618-8.084 8.084-8.084s8.084 3.62 8.084 8.084v38.397a8.084 8.084 0 0 1-8.084 8.084zM256 54.567a8.084 8.084 0 0 1-8.084-8.084V8.085c0-4.465 3.618-8.084 8.084-8.084s8.084 3.62 8.084 8.084v38.398A8.083 8.083 0 0 1 256 54.567zM431.301 439.387a8.057 8.057 0 0 1-5.716-2.368l-27.152-27.151a8.083 8.083 0 1 1 11.431-11.432l27.152 27.15a8.082 8.082 0 0 1 .001 11.432 8.052 8.052 0 0 1-5.716 2.369zM107.85 115.934a8.058 8.058 0 0 1-5.717-2.368L74.982 86.415a8.085 8.085 0 0 1 11.433-11.432l27.151 27.152a8.085 8.085 0 0 1-5.716 13.799z" style="" fill="#231f20" data-original="#231f20" class=""></path></g></svg>