<svg width="64" height="64" viewBox="0 0 64 64" fill="none" xmlns="http://www.w3.org/2000/svg">
<path d="M31.2833 11.1957C20.2582 11.5461 16.9814 19.4218 16.2305 23.6885C17.2089 22.107 20.2923 18.6368 24.8321 18.6368C30.1227 18.6368 34.1505 24.5419 36.6081 26.3851C39.5938 28.6244 45.5935 31.5812 53.4699 29.184C59.7505 27.2726 62.6632 20.6051 63.3003 17.4421C60.2625 21.5722 55.6545 24.053 49.9542 21.1285C46.0289 19.1146 43.0934 10.8203 31.2833 11.1957Z" fill="#07B6D5"/>
<path d="M15.6844 29.9347C4.65933 30.2851 1.38253 38.1608 0.631592 42.4275C1.61008 40.846 4.69346 37.3758 9.23319 37.3758C14.5239 37.3758 18.5516 43.2809 21.0092 45.1241C23.995 47.3635 29.9947 50.3202 37.8711 47.923C44.1516 46.0116 47.0643 39.3441 47.7015 36.1811C44.6636 40.3112 40.0556 42.792 34.3553 39.8675C30.43 37.8536 27.4945 29.5593 15.6844 29.9347Z" fill="#07B6D5"/>
</svg>
